<svg width="30" height="26" viewBox="0 0 30 26" fill="none" xmlns="http://www.w3.org/2000/svg">
<path d="M15 0C14.2816 0 13.6957 0.583985 13.6957 1.3C13.6957 2.01602 14.2816 2.6 15 2.6C15.7184 2.6 16.3043 2.01602 16.3043 1.3C16.3043 0.583985 15.7184 0 15 0ZM12.6766 2.47812L4.42255 7.8H6.82745L13.553 3.45312C13.181 3.20684 12.8804 2.87422 12.6766 2.47812ZM17.3234 2.47812C17.1196 2.87422 16.8164 3.20684 16.447 3.45312L23.1726 7.8H25.5571L17.3234 2.47812ZM0.652174 9.1C0.292969 9.1 0 9.39199 0 9.75V25.35C0 25.7105 0.292969 26 0.652174 26H29.3478C29.7096 26 30 25.7105 30 25.35V9.75C30 9.39199 29.7096 9.1 29.3478 9.1H0.652174ZM5.86957 13.65C6.94718 13.65 7.82609 14.526 7.82609 15.6V16.25H6.52174V15.6C6.52174 15.242 6.22877 14.95 5.86957 14.95C5.51036 14.95 5.21739 15.242 5.21739 15.6V19.5C5.21739 19.858 5.51036 20.15 5.86957 20.15C6.22877 20.15 6.52174 19.858 6.52174 19.5V18.85H7.82609V19.5C7.82609 20.574 6.94718 21.45 5.86957 21.45C4.79195 21.45 3.91304 20.574 3.91304 19.5V15.6C3.91304 14.526 4.79195 13.65 5.86957 13.65ZM9.13043 13.65H10.4348V20.15H12.3913V21.45H9.13043V13.65ZM15 13.65C16.0776 13.65 16.9565 14.526 16.9565 15.6V19.5C16.9565 20.574 16.0776 21.45 15 21.45C13.9224 21.45 13.0435 20.574 13.0435 19.5V15.6C13.0435 14.526 13.9224 13.65 15 13.65ZM20.2174 13.65C21.295 13.65 22.1739 14.526 22.1739 15.6V16.25H20.8696V15.6C20.8696 15.242 20.5766 14.95 20.2174 14.95C19.8582 14.95 19.5652 15.242 19.5652 15.6V16.4937L22.1739 17.7937V19.5C22.1739 20.574 21.295 21.45 20.2174 21.45C19.1398 21.45 18.2609 20.574 18.2609 19.5V18.85H19.5652V19.5C19.5652 19.858 19.8582 20.15 20.2174 20.15C20.5766 20.15 20.8696 19.858 20.8696 19.5V18.6062L18.2609 17.3062V15.6C18.2609 14.526 19.1398 13.65 20.2174 13.65ZM23.4783 13.65H26.7391V14.95H24.7826V16.9H26.087V18.2H24.7826V20.15H26.7391V21.45H23.4783V13.65ZM15 14.95C14.6408 14.95 14.3478 15.242 14.3478 15.6V19.5C14.3478 19.858 14.6408 20.15 15 20.15C15.3592 20.15 15.6522 19.858 15.6522 19.5V15.6C15.6522 15.242 15.3592 14.95 15 14.95Z" fill="#FF0000"/>
</svg>
