<svg width="50" height="50" viewBox="0 0 50 50" fill="none" xmlns="http://www.w3.org/2000/svg">
<path d="M46.875 36.4583C46.875 38.7594 45.0094 40.625 42.7083 40.625H7.29167C4.99062 40.625 3.125 38.7594 3.125 36.4583V13.5417C3.125 11.2406 4.99062 9.375 7.29167 9.375H42.7083C45.0094 9.375 46.875 11.2406 46.875 13.5417V36.4583Z" fill="#3F51B5"/>
<path d="M31.25 14.583C28.4874 14.583 25.8378 15.6805 23.8843 17.634C21.9308 19.5875 20.8334 22.237 20.8334 24.9997C20.8334 27.7623 21.9308 30.4119 23.8843 32.3654C25.8378 34.3189 28.4874 35.4163 31.25 35.4163C34.0127 35.4163 36.6622 34.3189 38.6157 32.3654C40.5692 30.4119 41.6667 27.7623 41.6667 24.9997C41.6667 22.237 40.5692 19.5875 38.6157 17.634C36.6622 15.6805 34.0127 14.583 31.25 14.583Z" fill="#FFC107"/>
<path d="M22.9312 31.2497C22.4479 30.607 22.0322 29.9122 21.7062 29.1663H27.2531C27.5427 28.5038 27.7697 27.808 27.9166 27.083H21.0437C20.9062 26.4101 20.8333 25.7143 20.8333 24.9997H28.125C28.125 24.2851 28.052 23.5893 27.9156 22.9163H21.0427C21.1906 22.1913 21.4166 21.4955 21.7062 20.833H27.2531C26.927 20.0872 26.5125 19.3924 26.0281 18.7497H22.9312C23.3864 18.1455 23.9 17.5809 24.4739 17.0882C22.6531 15.5299 20.2927 14.583 17.7083 14.583C11.9552 14.583 7.29163 19.2465 7.29163 24.9997C7.29163 30.7528 11.9552 35.4163 17.7083 35.4163C21.1135 35.4163 24.127 33.7757 26.027 31.2497H22.9312Z" fill="#FF3D00"/>
</svg>
