<svg width="82" height="82" viewBox="0 0 82 82" fill="none" xmlns="http://www.w3.org/2000/svg">
<path d="M32.0312 15.375C28.8281 15.375 26.2656 12.8125 26.2656 9.60938C26.2656 6.40625 28.8281 3.84375 32.0312 3.84375C35.2344 3.84375 37.7969 6.40625 37.7969 9.60938C37.7969 12.8125 35.2344 15.375 32.0312 15.375ZM32.0312 7.6875C30.9422 7.6875 30.1094 8.52031 30.1094 9.60938C30.1094 10.6984 30.9422 11.5312 32.0312 11.5312C33.1203 11.5312 33.9531 10.6984 33.9531 9.60938C33.9531 8.52031 33.1203 7.6875 32.0312 7.6875ZM49.9688 30.75C46.7656 30.75 44.2031 28.1875 44.2031 24.9844C44.2031 21.7812 46.7656 19.2188 49.9688 19.2188C53.1719 19.2188 55.7344 21.7812 55.7344 24.9844C55.7344 28.1875 53.1719 30.75 49.9688 30.75ZM49.9688 23.0625C48.8797 23.0625 48.0469 23.8953 48.0469 24.9844C48.0469 26.0734 48.8797 26.9062 49.9688 26.9062C51.0578 26.9062 51.8906 26.0734 51.8906 24.9844C51.8906 23.8953 51.0578 23.0625 49.9688 23.0625Z" fill="#969696"/>
<path d="M79.3734 55.9906C78.2203 53.4281 75.0812 52.4031 72.5187 53.4922L70.2766 54.4531L69.8281 53.5562C68.7391 50.9297 65.7281 49.7125 63.1016 50.8656L49.7766 56.6953C49.2641 55.8625 48.4953 55.2219 47.5344 54.7734L31.0063 47.3422C24.6 44.4594 17.1047 45.3562 11.5312 49.6484L9.03281 51.5703L8.39219 52.2109H2.5625C1.47344 52.2109 0.640625 53.0437 0.640625 54.1328V74.6328H8.32812V71.3015L8.90469 70.9812C11.0188 69.7641 13.6453 69.7 15.8234 70.789L30.0453 77.9C33.3766 79.5015 37.2203 79.6297 40.6797 78.1562L76.8109 62.9094C79.3734 61.7562 80.5906 58.6172 79.3734 55.9906Z" fill="white"/>
<path d="M81.2313 55.4141C80.5266 53.6844 79.1172 52.3391 77.3875 51.6344C75.6578 50.9297 73.7359 50.9297 72.0062 51.6985L71.2375 52.0188C70.4688 50.6735 69.2516 49.6485 67.8422 49.0719C66.1125 48.3672 64.1906 48.3672 62.4609 49.136L55.0297 52.2751C54.0688 52.6594 53.6203 53.8126 54.0047 54.7735C54.325 55.4782 55.0297 55.9266 55.7984 55.9266C56.0547 55.9266 56.3109 55.8626 56.5672 55.7985L63.9984 52.6594C64.7672 52.3391 65.6641 52.3391 66.4328 52.6594C66.9453 52.8516 67.3297 53.1719 67.65 53.5563L52.5953 59.9626C52.7875 57.0798 51.25 54.261 48.4312 53.0438L31.775 45.6126C24.7281 42.4735 16.5281 43.4344 10.3781 48.111L7.87969 50.0329C7.81563 50.0969 7.75156 50.161 7.6875 50.2251L7.04688 50.8657C6.6625 51.2501 6.47031 51.6985 6.47031 52.211V72.711H2.5625C1.47344 72.711 0.640625 73.5438 0.640625 74.6329C0.640625 75.7219 1.47344 76.5547 2.5625 76.5547H8.32812C9.41719 76.5547 10.25 75.7219 10.25 74.6329V52.9797L12.6844 51.1219C17.7453 47.2782 24.4078 46.5094 30.2375 49.0719L46.7656 56.5032C47.5344 56.8235 48.175 57.4641 48.4312 58.2969C48.7516 59.0657 48.6875 59.9626 48.3672 60.7313C48.0469 61.5001 47.4063 62.0766 46.6375 62.3969C45.8688 62.7173 44.9719 62.6532 44.2031 62.3329L31.3906 56.6313C30.4297 56.1829 29.2766 56.6313 28.8281 57.5923C28.3797 58.5532 28.8281 59.7063 29.7891 60.1548L42.6016 65.8563C44.3312 66.6251 46.2531 66.6891 47.9828 65.9844C48.2391 65.9204 48.4953 65.7923 48.6875 65.6641C48.8156 65.6641 48.8797 65.6001 48.9438 65.6001L73.4156 55.2219C74.1844 54.9016 75.0813 54.9016 75.85 55.2219C76.6188 55.5422 77.2594 56.1829 77.5797 56.9516C77.9 57.7204 77.9 58.6172 77.5797 59.386C77.2594 60.1547 76.6188 60.7954 75.85 61.1157L39.7188 76.3626C36.8359 77.5798 33.5047 77.5157 30.6859 76.1063L15.4391 68.6751C14.4781 68.2266 13.325 68.611 12.8766 69.5719C12.4281 70.5329 12.8125 71.686 13.7734 72.1344L29.0203 79.5657C31.0703 80.5907 33.2484 81.0391 35.4906 81.0391C37.4125 81.0391 39.3984 80.6547 41.2563 79.886L77.3875 64.6391C79.1172 63.9344 80.4625 62.5251 81.1672 60.7954C81.9359 59.0657 81.9359 57.1438 81.2313 55.4141ZM71.75 19.8594H64.7031C63.6141 19.8594 62.7812 19.0266 62.7812 17.9376C62.7812 16.8485 63.6141 16.0157 64.7031 16.0157H71.75C72.8391 16.0157 73.6719 16.8485 73.6719 17.9376C73.6719 19.0266 72.8391 19.8594 71.75 19.8594ZM17.2969 19.8594H10.25C9.16094 19.8594 8.32812 19.0266 8.32812 17.9376C8.32812 16.8485 9.16094 16.0157 10.25 16.0157H17.2969C18.3859 16.0157 19.2188 16.8485 19.2188 17.9376C19.2188 19.0266 18.3859 19.8594 17.2969 19.8594ZM61.5 8.00787C60.8594 8.00787 60.2188 7.68756 59.8344 7.04693C59.3219 6.15006 59.6422 4.93287 60.5391 4.42037L66.1125 1.21725C67.0094 0.704746 68.2266 1.02506 68.7391 1.92193C69.2516 2.81881 68.9313 4.036 68.0344 4.5485L62.4609 7.75162C62.2047 7.94381 61.8844 8.00787 61.5 8.00787ZM14.9266 34.9141C14.2859 34.9141 13.6453 34.5938 13.2609 33.9532C12.7484 33.0563 13.0687 31.8391 13.9656 31.3266L19.5391 28.1235C20.4359 27.611 21.6531 27.9313 22.1656 28.8282C22.6781 29.7251 22.3578 30.9422 21.4609 31.4547L15.8875 34.6579C15.5672 34.8501 15.2469 34.9141 14.9266 34.9141ZM67.0734 34.9141C66.7531 34.9141 66.4328 34.8501 66.1125 34.6579L60.5391 31.4547C59.6422 30.9422 59.3219 29.7251 59.8344 28.8282C60.3469 27.9313 61.5641 27.611 62.4609 28.1235L68.0344 31.3266C68.9313 31.8391 69.2516 33.0563 68.7391 33.9532C68.3547 34.5938 67.7141 34.9141 67.0734 34.9141ZM20.5 8.00787C20.1797 8.00787 19.8594 7.94381 19.5391 7.75162L13.9656 4.5485C13.0687 4.036 12.7484 2.81881 13.2609 1.92193C13.7734 1.02506 14.9906 0.704746 15.8875 1.21725L21.4609 4.42037C22.3578 4.93287 22.6781 6.15006 22.1656 7.04693C21.7812 7.68756 21.1406 8.00787 20.5 8.00787Z" fill="#969696"/>
<path d="M31.3907 30.1095C30.9422 30.1095 30.4938 29.9814 30.1094 29.597C29.3407 28.8923 29.2125 27.6751 29.9172 26.9064L49.136 5.1251C49.8407 4.35635 51.0579 4.22823 51.8266 4.93291C52.5954 5.6376 52.7235 6.85479 52.0188 7.62354L32.8 29.4048C32.4797 29.9173 31.9032 30.1095 31.3907 30.1095Z" fill="#969696"/>
<path d="M79.4375 16.0156C78.9278 16.0156 78.4389 16.2181 78.0785 16.5785C77.7181 16.939 77.5156 17.4278 77.5156 17.9375C77.5156 18.4472 77.7181 18.936 78.0785 19.2965C78.4389 19.6569 78.9278 19.8594 79.4375 19.8594C79.9472 19.8594 80.4361 19.6569 80.7965 19.2965C81.1569 18.936 81.3594 18.4472 81.3594 17.9375C81.3594 17.4278 81.1569 16.939 80.7965 16.5785C80.4361 16.2181 79.9472 16.0156 79.4375 16.0156Z" fill="#969696"/>
<path d="M2.5625 16.0156C2.05279 16.0156 1.56395 16.2181 1.20353 16.5785C0.843108 16.939 0.640625 17.4278 0.640625 17.9375C0.640625 18.4472 0.843108 18.936 1.20353 19.2965C1.56395 19.6569 2.05279 19.8594 2.5625 19.8594C3.07221 19.8594 3.56105 19.6569 3.92147 19.2965C4.28189 18.936 4.48438 18.4472 4.48438 17.9375C4.48438 17.4278 4.28189 16.939 3.92147 16.5785C3.56105 16.2181 3.07221 16.0156 2.5625 16.0156Z" fill="#969696"/>
</svg>
