<svg width="53" height="37" viewBox="0 0 53 37" fill="none" xmlns="http://www.w3.org/2000/svg">
<g id="Layer_1" clip-path="url(#clip0_13_616)">
<path id="Vector" d="M52.9999 32.6331C52.9889 32.6471 52.9723 32.6584 52.9681 32.6739C52.1495 35.4702 50.7763 36.5045 47.8778 36.5045C33.5097 36.5045 19.1416 36.5045 4.7736 36.5045C2.59004 36.5045 0.943038 35.435 0.290322 33.5379C0.117463 33.0341 0.0151302 32.4783 0.0137473 31.9463C-0.00284716 22.9931 -0.00284716 14.0413 0.00545008 5.08808C0.00821582 2.69287 1.66352 0.839458 4.00057 0.570665C4.30757 0.535483 4.6201 0.532668 4.92986 0.532668C19.1596 0.531261 33.3908 0.559407 47.6205 0.504522C50.1194 0.494671 52.2988 1.3686 53.0013 4.40273V32.6345L52.9999 32.6331ZM26.5027 34.706C33.7641 34.706 41.0256 34.7074 48.2871 34.706C50.1623 34.706 51.2368 33.6041 51.2368 31.6958C51.2368 22.9016 51.2368 14.1074 51.2368 5.31325C51.2368 3.46125 50.1609 2.33541 48.3618 2.33401C33.7863 2.32978 19.2122 2.32978 4.63669 2.33401C2.85693 2.33401 1.76723 3.45703 1.76585 5.26259C1.76446 14.092 1.76585 22.9213 1.76585 31.7507C1.76585 31.9787 1.76585 32.2095 1.80457 32.4318C2.05487 33.8658 3.12798 34.7046 4.71552 34.7046C11.977 34.7074 19.2385 34.7046 26.4999 34.7046L26.5027 34.706Z" fill="#7E7E7E"/>
<path id="Vector_2" d="M9.73275 15.8131C8.59464 15.8131 7.45654 15.8229 6.31843 15.8102C4.63548 15.7934 3.53747 14.6717 3.53056 12.9661C3.52365 11.2816 3.52503 9.59704 3.53056 7.91251C3.53609 6.1745 4.64516 5.0374 6.34056 5.03318C8.59879 5.02755 10.8584 5.02755 13.1166 5.03318C14.7415 5.0374 15.8686 6.12665 15.899 7.77741C15.9308 9.5309 15.928 11.2872 15.9004 13.0407C15.8755 14.7083 14.7844 15.7877 13.1457 15.8088C12.0076 15.8229 10.8695 15.8117 9.73136 15.8117L9.73275 15.8131ZM14.0929 12.2554H8.85601V13.9948C10.3965 13.9948 11.908 14.0216 13.4181 13.9667C13.6504 13.9582 13.974 13.6036 14.0667 13.3404C14.1801 13.021 14.0929 12.6269 14.0929 12.2554ZM12.4114 6.83452V10.3879H14.1192C14.1192 9.45068 14.1427 8.54298 14.1095 7.63949C14.0916 7.15679 13.7652 6.888 13.3006 6.84015C13.0129 6.8106 12.7211 6.83452 12.4128 6.83452H12.4114ZM8.86569 6.85563V10.3908H10.5639V6.85563H8.86569ZM7.02232 10.3936V6.83311C6.71255 6.83311 6.43874 6.81623 6.1677 6.83733C5.67263 6.87533 5.33798 7.16242 5.31585 7.65779C5.27436 8.55986 5.30479 9.46475 5.30479 10.395H7.02232V10.3936ZM7.03338 12.2554H5.33936C5.15129 13.7683 5.5703 14.189 7.05965 13.9526C7.05965 13.5684 7.06242 13.173 7.05965 12.7775C7.05827 12.6086 7.04444 12.4398 7.03476 12.2554H7.03338Z" fill="#7E7E7E"/>
<path id="Vector_3" d="M43.7456 32.1335C41.7639 33.2832 39.9869 33.0848 38.77 31.5762C37.6941 30.2435 37.7246 28.2916 38.824 26.9715C39.7712 25.8344 41.739 25.0576 43.7235 26.4747C45.6996 25.3292 47.4904 25.5389 48.6866 27.0531C49.768 28.4224 49.7155 30.3701 48.5691 31.6986C47.6439 32.771 45.701 33.5408 43.7442 32.1335H43.7456ZM45.9167 31.0935C46.8972 31.1019 47.702 30.2998 47.7048 29.3076C47.7075 28.3281 46.8875 27.4964 45.9264 27.5021C44.9722 27.5077 44.1937 28.2972 44.1798 29.2724C44.166 30.2871 44.928 31.085 45.9167 31.0935ZM42.519 30.7402V27.8567C41.775 27.305 40.7807 27.4021 40.1598 28.1607C39.5818 28.8643 39.6233 29.8987 40.2552 30.5587C40.901 31.2328 41.9078 31.2722 42.519 30.7417V30.7402Z" fill="#7E7E7E"/>
<path id="Vector_4" d="M49.4849 10.8847C49.4102 13.9709 48.521 16.2465 46.6832 18.0999C46.4592 18.3265 46.0388 18.5038 45.7373 18.4658C45.0251 18.3786 44.8287 17.4892 45.375 16.922C46.2711 15.9918 46.968 14.9391 47.3276 13.6838C48.1725 10.7454 47.5558 8.14894 45.5271 5.89023C45.3459 5.68899 45.1565 5.45678 45.0804 5.20488C44.9615 4.81224 45.1427 4.47449 45.4884 4.27184C45.877 4.04386 46.2531 4.11141 46.5767 4.42664C47.7452 5.56655 48.5971 6.92037 49.0327 8.50217C49.2857 9.42254 49.3922 10.3851 49.4835 10.8833L49.4849 10.8847Z" fill="#7E7E7E"/>
<path id="Vector_5" d="M45.9403 11.4251C45.8947 13.2616 45.2696 14.9617 43.9683 16.3858C43.6517 16.7334 43.2672 16.8334 42.8482 16.5913C42.4734 16.3746 42.3448 16.0157 42.4472 15.602C42.4914 15.4261 42.6103 15.2572 42.7279 15.1122C44.657 12.7311 44.657 9.90665 42.7224 7.5438C42.3034 7.03155 42.2895 6.50663 42.685 6.14776C43.0902 5.78046 43.5963 5.85505 44.043 6.3476C45.2378 7.66624 45.9403 9.50979 45.9403 11.4265V11.4251Z" fill="#7E7E7E"/>
<path id="Vector_6" d="M36.2298 21.2227C37.0387 21.2227 37.8477 21.2185 38.6567 21.2241C39.3564 21.2297 39.7547 21.5647 39.7464 22.1262C39.7381 22.6652 39.3398 23.0156 38.6844 23.0184C37.0318 23.0269 35.3793 23.0283 33.7281 23.0184C33.0685 23.0142 32.6937 22.6624 32.6993 22.1023C32.7048 21.5394 33.0671 21.2297 33.7516 21.2241C34.5772 21.2171 35.4042 21.2227 36.2298 21.2227Z" fill="#7E7E7E"/>
<path id="Vector_7" d="M9.72973 21.2227C10.5553 21.2227 11.3823 21.2157 12.2078 21.2255C12.8647 21.2326 13.2547 21.5788 13.2464 22.1262C13.2395 22.6652 12.8398 23.0156 12.1857 23.0184C10.5332 23.0269 8.88203 23.0283 7.22949 23.0184C6.56986 23.0142 6.1951 22.6638 6.19925 22.1037C6.20478 21.5408 6.5671 21.2312 7.25162 21.2255C8.07719 21.2185 8.90415 21.2241 9.72973 21.2241V21.2227Z" fill="#7E7E7E"/>
<path id="Vector_8" d="M18.5721 21.2227C19.3976 21.2227 20.2246 21.2157 21.0502 21.2255C21.696 21.2326 22.0541 21.545 22.068 22.0854C22.0832 22.6497 21.7112 23.0142 21.0571 23.0184C19.388 23.0297 17.7188 23.0297 16.0497 23.0184C15.4122 23.0142 15.007 22.63 15.0209 22.0924C15.0347 21.5661 15.4136 21.2326 16.0428 21.2255C16.8863 21.2157 17.7299 21.2227 18.5721 21.2227Z" fill="#7E7E7E"/>
<path id="Vector_9" d="M27.3919 21.2227C28.2175 21.2227 29.0444 21.2157 29.87 21.2241C30.5227 21.2312 30.9224 21.583 30.9155 22.122C30.9099 22.6441 30.52 23.0114 29.906 23.0156C28.2189 23.0269 26.5331 23.0283 24.846 23.0156C24.2362 23.0114 23.8517 22.6328 23.8545 22.1065C23.8587 21.5788 24.2403 21.2326 24.8599 21.2241C25.7034 21.2129 26.547 21.2213 27.3891 21.2213L27.3919 21.2227Z" fill="#7E7E7E"/>
<path id="Vector_10" d="M7.47741 32.0012C6.79013 32.0012 6.10146 32.0082 5.41417 31.9984C4.79879 31.9899 4.43094 31.6409 4.43509 31.0949C4.43786 30.5488 4.80294 30.2111 5.428 30.2083C6.82055 30.2012 8.21449 30.2012 9.60704 30.2083C10.2224 30.2111 10.5916 30.5629 10.5875 31.1075C10.5833 31.6479 10.2114 31.9899 9.59321 31.9984C8.88795 32.0068 8.18268 31.9998 7.47741 31.9998V32.0012Z" fill="#7E7E7E"/>
<path id="Vector_11" d="M15.4883 30.2069C16.177 30.2069 16.8643 30.1998 17.553 30.2083C18.167 30.2153 18.5417 30.5629 18.539 31.1047C18.5376 31.6423 18.1601 31.9941 17.5461 31.9984C16.1521 32.0054 14.7596 32.0068 13.3656 31.9984C12.7585 31.9956 12.3741 31.6325 12.3755 31.0991C12.3755 30.5671 12.7599 30.2167 13.3712 30.2097C14.0764 30.2013 14.7817 30.2083 15.487 30.2083L15.4883 30.2069Z" fill="#7E7E7E"/>
<path id="Vector_12" d="M42.4017 11.3097C42.3782 12.2695 42.0352 13.0829 41.3134 13.7162C40.8653 14.1088 40.3163 14.106 39.9789 13.7162C39.6415 13.3278 39.6885 12.8338 40.1034 12.4102C40.8017 11.6953 40.8073 10.9692 40.1213 10.2627C39.6816 9.81095 39.636 9.31137 39.9997 8.91873C40.3647 8.52187 40.8529 8.52891 41.33 8.9511C42.0325 9.57312 42.374 10.3697 42.4045 11.3097H42.4017Z" fill="#7E7E7E"/>
<path id="Vector_13" d="M18.5665 24.8212C19.1363 24.8212 19.706 24.8099 20.2744 24.824C20.8151 24.8366 21.1871 25.1955 21.2023 25.6838C21.2175 26.1665 20.851 26.5929 20.3241 26.6028C19.1349 26.6267 17.9428 26.6295 16.7536 26.6C16.2225 26.5873 15.8934 26.1651 15.9183 25.6557C15.9432 25.166 16.2751 24.8395 16.8061 24.8254C17.3925 24.8085 17.9788 24.8212 18.5651 24.8212H18.5665Z" fill="#7E7E7E"/>
<path id="Vector_14" d="M24.2597 26.6014C24.0882 26.6014 23.9126 26.6239 23.7453 26.5972C23.2571 26.5184 22.9446 26.1159 22.9792 25.6374C23.0124 25.1772 23.3429 24.8549 23.8324 24.8268C24.1242 24.8099 24.4174 24.8113 24.7091 24.824C25.236 24.8465 25.5721 25.166 25.5997 25.6501C25.6288 26.1581 25.3024 26.5437 24.7741 26.6042C24.604 26.6239 24.4312 26.607 24.2583 26.607C24.2583 26.6042 24.2583 26.6014 24.2583 26.6L24.2597 26.6014Z" fill="#7E7E7E"/>
<path id="Vector_15" d="M28.7294 24.8197C28.8331 24.8197 28.9354 24.8169 29.0391 24.8197C29.6614 24.8366 30.0293 25.1716 30.0251 25.7148C30.0224 26.2453 29.6393 26.5929 29.0281 26.614C28.8054 26.6211 28.58 26.6239 28.3574 26.614C27.7517 26.5859 27.3838 26.2228 27.4004 25.6782C27.4157 25.1561 27.7738 24.8394 28.3685 24.8197C28.4888 24.8155 28.6091 24.8197 28.7294 24.8197Z" fill="#7E7E7E"/>
</g>
<defs>
<clipPath id="clip0_13_616">
<rect width="53" height="36" fill="white" transform="translate(0 0.504517)"/>
</clipPath>
</defs>
</svg>
